<?xml version="1.0" encoding="UTF-8" standalone="no"?>
<!-- Created with Inkscape (http://www.inkscape.org/) -->

<svg
   xmlns:dc="http://purl.org/dc/elements/1.1/"
   xmlns:cc="http://creativecommons.org/ns#"
   xmlns:rdf="http://www.w3.org/1999/02/22-rdf-syntax-ns#"
   xmlns:svg="http://www.w3.org/2000/svg"
   xmlns="http://www.w3.org/2000/svg"
   xmlns:sodipodi="http://sodipodi.sourceforge.net/DTD/sodipodi-0.dtd"
   xmlns:inkscape="http://www.inkscape.org/namespaces/inkscape"
   id="svg3355"
   version="1.1"
   inkscape:version="0.91 r13725"
   xml:space="preserve"
   width="108.3625"
   height="108.55"
   viewBox="0 0 108.3625 108.55"
   sodipodi:docname="Manoa seal.svg"><metadata
     id="metadata3361"><rdf:RDF><cc:Work
         rdf:about=""><dc:format>image/svg+xml</dc:format><dc:type
           rdf:resource="http://purl.org/dc/dcmitype/StillImage" /><dc:title></dc:title></cc:Work></rdf:RDF></metadata><defs
     id="defs3359" /><sodipodi:namedview
     pagecolor="#ffffff"
     bordercolor="#666666"
     borderopacity="1"
     objecttolerance="10"
     gridtolerance="10"
     guidetolerance="10"
     inkscape:pageopacity="0"
     inkscape:pageshadow="2"
     inkscape:window-width="1855"
     inkscape:window-height="1056"
     id="namedview3357"
     showgrid="false"
     inkscape:zoom="8.4661444"
     inkscape:cx="54.181252"
     inkscape:cy="54.275002"
     inkscape:window-x="65"
     inkscape:window-y="24"
     inkscape:window-maximized="1"
     inkscape:current-layer="g3363" /><g
     id="g3363"
     inkscape:groupmode="layer"
     inkscape:label="ink_ext_XXXXXX"
     transform="matrix(1.25,0,0,-1.25,0,108.55)"><g
       id="g3365"
       transform="scale(0.1,0.1)"><path
         d="m 466.094,176.855 15.254,0 -10.469,-17.566 c -0.234,-0.332 -0.41,-0.605 -0.664,-0.84 -0.235,-0.234 -0.527,-0.312 -0.879,-0.371 l 0,-0.539 10.449,0 0,0.539 c -0.234,0.059 -0.469,0.078 -0.722,0.176 -0.235,0.098 -0.391,0.293 -0.391,0.672 0,0.156 0.117,0.461 0.332,0.851 0.254,0.321 0.469,0.664 0.644,1.036 l 9.141,16.707 0,6.054 -0.586,0 c 0,-0.437 -0.098,-0.711 -0.312,-0.886 -0.196,-0.168 -0.352,-0.196 -0.547,-0.196 l -21.25,0 c -0.196,0 -0.371,0.028 -0.567,0.196 -0.195,0.175 -0.332,0.468 -0.332,0.957 l -0.507,0 0,-7.832 0.507,0 c 0,0.429 0.137,0.75 0.332,0.859 0.196,0.156 0.371,0.183 0.567,0.183 z m -18.106,-0.468 c 1.035,0 1.875,-0.223 2.637,-0.633 0.742,-0.402 1.328,-0.938 1.836,-1.641 0.449,-0.675 0.82,-1.437 1.094,-2.277 0.195,-0.848 0.293,-1.746 0.293,-2.606 0,-0.898 -0.098,-1.777 -0.293,-2.609 -0.274,-0.867 -0.645,-1.629 -1.094,-2.305 -0.508,-0.691 -1.094,-1.23 -1.836,-1.648 -0.762,-0.43 -1.602,-0.625 -2.637,-0.625 -1.093,0 -1.972,0.195 -2.695,0.625 -0.762,0.418 -1.406,0.957 -1.855,1.648 -0.489,0.676 -0.801,1.438 -1.036,2.305 -0.214,0.832 -0.312,1.711 -0.312,2.609 0,0.86 0.098,1.758 0.312,2.606 0.235,0.84 0.547,1.602 1.036,2.277 0.449,0.703 1.093,1.239 1.855,1.641 0.723,0.41 1.602,0.633 2.695,0.633 z m 0,5.566 c -1.797,0 -3.457,-0.32 -4.98,-0.984 -1.563,-0.606 -2.91,-1.504 -4.141,-2.649 -1.172,-1.16 -2.109,-2.5 -2.754,-4.031 -0.703,-1.562 -1.054,-3.234 -1.054,-5.059 0,-1.867 0.351,-3.546 1.054,-5.117 0.645,-1.504 1.582,-2.883 2.754,-4.023 1.231,-1.133 2.578,-1.985 4.141,-2.598 1.523,-0.617 3.183,-0.929 4.98,-0.929 1.7,0 3.379,0.312 4.922,0.929 1.602,0.613 2.93,1.465 4.121,2.598 1.172,1.14 2.129,2.519 2.832,4.023 0.664,1.571 0.977,3.25 0.977,5.117 0,1.825 -0.313,3.497 -0.977,5.059 -0.703,1.531 -1.66,2.871 -2.832,4.031 -1.191,1.145 -2.519,2.043 -4.121,2.649 -1.543,0.664 -3.222,0.984 -4.922,0.984 z m -31.035,-4.012 c 0.449,0 0.977,-0.05 1.563,-0.136 0.625,-0.11 1.152,-0.285 1.679,-0.625 0.567,-0.227 0.996,-0.52 1.387,-1.016 0.391,-0.441 0.606,-1.027 0.606,-1.719 0,-0.722 -0.215,-1.269 -0.606,-1.718 -0.391,-0.52 -0.82,-0.84 -1.387,-1.086 -0.527,-0.235 -1.054,-0.418 -1.679,-0.547 -0.586,-0.098 -1.114,-0.137 -1.563,-0.137 -0.39,0 -0.937,0.039 -1.543,0.137 -0.566,0.129 -1.211,0.312 -1.699,0.547 -0.566,0.246 -0.996,0.566 -1.387,1.086 -0.332,0.449 -0.508,0.996 -0.508,1.718 0,0.692 0.176,1.278 0.508,1.719 0.391,0.496 0.821,0.789 1.387,1.016 0.488,0.34 1.133,0.515 1.699,0.625 0.606,0.086 1.153,0.136 1.543,0.136 z m -7.949,-13 -3.75,-6.394 0.566,-0.227 c 0.332,0.364 0.684,0.539 1.094,0.539 0.098,0 0.352,-0.089 0.781,-0.254 0.45,-0.156 1.035,-0.351 1.856,-0.527 0.762,-0.226 1.621,-0.344 2.656,-0.469 1.035,-0.168 2.168,-0.214 3.398,-0.214 1.875,0 3.75,0.293 5.489,0.82 1.816,0.555 3.359,1.387 4.648,2.5 1.348,1.082 2.422,2.48 3.164,4.129 0.801,1.64 1.192,3.488 1.192,5.586 0,2.09 -0.332,3.886 -0.957,5.441 -0.606,1.551 -1.504,2.781 -2.696,3.797 -1.093,1.074 -2.5,1.828 -4.082,2.316 -1.66,0.508 -3.457,0.801 -5.449,0.801 -1.269,0 -2.539,-0.148 -3.906,-0.449 -1.289,-0.324 -2.5,-0.832 -3.613,-1.484 -1.133,-0.625 -2.012,-1.524 -2.774,-2.539 -0.625,-1.114 -0.996,-2.364 -0.996,-3.868 0,-1.289 0.234,-2.492 0.664,-3.488 0.586,-1.004 1.231,-1.922 2.051,-2.644 0.957,-0.735 1.914,-1.282 3.008,-1.672 1.093,-0.371 2.304,-0.567 3.515,-0.567 1.602,0 3.028,0.196 4.414,0.617 1.289,0.418 2.871,1.063 4.512,1.844 -0.117,-1.14 -0.43,-2.137 -0.879,-2.898 -0.449,-0.84 -1.152,-1.555 -1.914,-2.071 -0.742,-0.586 -1.562,-0.957 -2.48,-1.281 -0.938,-0.273 -1.914,-0.39 -2.911,-0.39 -0.742,0 -1.503,0.05 -2.265,0.148 -0.742,0.066 -1.367,0.234 -1.934,0.43 -0.586,0.183 -1.035,0.429 -1.386,0.722 -0.372,0.301 -0.528,0.645 -0.528,1.082 l 0,0.45 -0.488,0.214 z m -22.734,6.993 0.605,0 c 0,0.273 0.059,0.539 0.137,0.742 0.078,0.207 0.215,0.383 0.449,0.5 0.234,0.137 0.586,0.262 1.133,0.359 0.429,0.156 1.054,0.293 1.836,0.528 l 0,-15.106 c 0,-0.352 -0.098,-0.559 -0.313,-0.684 -0.254,-0.097 -0.508,-0.136 -0.84,-0.168 l 0,-0.566 9.473,0 0,0.566 c -0.312,0.032 -0.547,0.071 -0.781,0.168 -0.235,0.125 -0.352,0.332 -0.352,0.684 l 0,22.098 c 0,0.351 0.117,0.578 0.352,0.675 0.234,0.106 0.508,0.157 0.879,0.176 l 0,0.586 -9.356,0 0,-0.586 c 0.196,-0.019 0.43,-0.07 0.645,-0.176 0.215,-0.097 0.293,-0.324 0.293,-0.675 l 0,-1.504 c -0.078,-0.039 -0.274,-0.125 -0.567,-0.262 -0.312,-0.098 -0.625,-0.246 -0.976,-0.383 -0.352,-0.097 -0.684,-0.254 -0.957,-0.34 -0.313,-0.089 -0.469,-0.156 -0.528,-0.156 -0.254,0 -0.39,0.156 -0.429,0.438 -0.059,0.293 -0.098,0.539 -0.098,0.703 l -0.605,0 0,-7.617 z m 117.246,469.152 c -6.875,16.492 1.152,39.277 1.152,39.277 -35.938,-8.547 -42.949,-30.187 -53.535,-32.277 -8.399,-1.648 -6.074,18.613 -6.074,18.613 0,0 -50.899,-26.023 -68.536,-67.109 -15.097,-35.516 -1.23,-55.281 -1.23,-55.281 l 18.652,-0.02 c -1.797,59.219 39.571,81.844 67.364,97.059 6.191,3.39 12.089,6.562 16.582,9.679 l 9.707,6.778 -1.895,-11.7 c -0.019,-0.148 -2.285,-14.484 0.606,-28.039 0.859,-3.992 2.285,-7.5 3.593,-10.867 3.282,-8.293 6.641,-16.847 2.793,-31.164 -3.32,-12.137 -13.437,-24.16 -20.898,-31.777 l 13.457,0 c 0,0 14.043,5.781 25.156,30.644 11.055,31.875 0.039,44.934 -6.894,66.184 z m -20.547,-62.395 c 1.035,3.614 1.406,6.653 1.406,9.414 0,5.754 -1.797,10.215 -3.848,15.403 -1.406,3.769 -2.968,7.676 -4.023,12.41 -1.309,6.172 -1.719,12.414 -1.719,17.656 0,1.34 0,2.59 0.059,3.781 -2.774,-1.582 -5.762,-3.242 -8.731,-4.863 -26.504,-14.472 -62.148,-33.937 -62.148,-84.453 0,-1.242 0.058,-2.48 0.098,-3.75 l 52.968,-0.031 c 2.657,2.246 21.758,18.926 25.938,34.433 z m -22.305,-151.562 4.961,56.387 c -7.266,-3.25 -15.703,-5.516 -25.254,-6.231 l -5.058,-93.172 c 0,-0.664 -0.665,-1.203 -1.348,-1.203 l -0.059,0 c 0,0 0,0 0.059,0 -0.742,0 -1.328,0.539 -1.367,1.203 l -5.059,93.172 c -9.551,0.695 -17.969,2.903 -25.254,6.106 l 4.922,-56.262 -178.73,74.328 c 5.371,-14.25 70.703,-186.887 71.66,-189.492 l 113.554,-50.402 2.579,44.414 c 0,0.382 0.351,0.781 0.722,0.781 0.469,0 0.84,-0.399 0.84,-0.781 l 4.258,-48.153 0.019,0 4.004,-45.976 c 0.235,-4.172 3.653,-7.453 7.793,-7.453 4.258,0 7.617,3.261 7.793,7.433 l 4.141,45.996 0,0 4.199,48.153 c 0,0.382 0.352,0.781 0.781,0.781 0.45,0 0.801,-0.399 0.801,-0.781 l 2.598,-44.414 113.574,50.402 c 0.957,2.605 66.211,175.242 71.582,189.492 L 460.664,427.129 Z M 321.66,522.063 c 18.809,-12.18 50.703,-39.571 67.5,-56.946 -40.703,71.055 -71.23,86.672 -79.57,88.938 l 12.07,-31.992 z m 72.149,-76.946 c -66.465,66.379 -109.727,86.77 -130.371,90.578 l 15.722,-41.379 114.649,-49.199 z m 104.687,91.399 -129.16,0 c -2.891,0 -5.273,-2.403 -5.273,-5.352 0,-2.922 2.382,-5.344 5.273,-5.344 l 129.16,0 c 2.969,0 5.313,2.422 5.313,5.344 0,2.949 -2.344,5.352 -5.313,5.352 z m -122.48,-18.528 c 5.996,-14.246 25.879,-33.242 57.89,-33.242 32.149,0 51.094,18.996 58.379,33.242 l -116.269,0 z m 182.265,36.067 c -8.32,-2.266 -38.867,-17.883 -79.629,-88.938 16.856,17.375 48.75,44.766 67.637,56.946 l 11.992,31.992 z m 30.449,-59.739 15.665,41.379 c -20.586,-3.808 -63.848,-24.199 -130.313,-90.578 l 114.648,49.199 z m 150.059,-63.738 -0.059,7.051 -49.824,0 c -0.664,64.441 -16.582,124.324 -43.574,174.168 l 36.856,0 -5.293,7.082 -35.508,0 c -23.282,40.625 -53.985,74.168 -89.59,97.449 0,0 -2.383,0.91 -3.731,1.543 -1.464,0.734 -11.406,4.426 -11.406,4.426 -9.726,3.574 -27.012,8.25 -27.012,8.25 49.942,-20.156 92.989,-59.746 123.633,-111.668 l -88.164,0 c -4.199,13.758 -8.867,26.855 -14.043,39.082 -15.527,36.914 -34.238,63.719 -54.863,79.16 0,0 -3.281,0.508 -5.43,0.801 -2.09,0.254 -10.722,1.101 -10.722,1.101 31.66,-15.664 59.199,-59.511 77.812,-120.144 l -13.125,0 c 0,0 1.055,-2.832 1.699,-7.082 l 13.535,0 c 4.297,-14.785 8.047,-30.496 11.27,-47 0,0 3.359,1.387 5.254,1.973 l 1.406,0.488 c -3.066,15.488 -6.621,30.32 -10.703,44.539 l 90.117,0 c 27.461,-49.512 43.867,-109.481 44.531,-174.168 l -53.359,0 -2.656,-7.051 56.015,0 C 681.328,365.91 664.98,305.957 637.656,256.418 l -90.293,0 c 3.457,11.914 6.465,24.227 9.141,37.059 l -7.871,-3.516 c -2.52,-11.641 -5.391,-22.84 -8.457,-33.543 l -67.207,0 -15.938,-7.109 81.016,0 c -18.184,-59.668 -45.078,-103.145 -76.016,-119.758 0,0 7.617,0.871 9.785,1.086 2.129,0.203 5.743,0.781 5.743,0.781 20.039,15.613 38.3,42.039 53.515,78.172 5.254,12.433 9.981,25.723 14.258,39.719 l 88.301,0 C 604.063,198.926 562.871,160.09 514.961,139.25 c 0,0 13.144,3.641 21.289,6.688 0,0 12.871,4.804 15.996,6.328 l 2.695,1.035 c 34.454,23.359 64.2,56.308 86.836,96.008 l 34.922,0 c 1.231,1.464 5.274,7.109 5.274,7.109 l -36.309,0 c 26.836,49.863 42.715,109.754 43.262,174.16 l 49.863,0 z m 0,0 0,-0.117 0,0.117 z m -344.023,-174.16 -66.856,0 c -3.105,10.652 -5.918,21.805 -8.418,33.398 l -7.91,3.497 c 2.656,-12.805 5.703,-25.032 9.082,-36.895 l -90.273,0 c -27.364,49.539 -43.633,109.492 -44.18,174.16 l 55.723,0 -2.657,7.051 -53.007,0 c 0.605,64.687 16.953,124.656 44.511,174.168 l 90.059,0 c -4.082,-14.305 -7.676,-29.246 -10.723,-44.863 0,0 2.481,-0.586 3.946,-1.2 l 2.773,-1.152 c 3.144,16.57 6.934,32.363 11.23,47.215 l 40.196,0 c 1.445,2.734 4.082,7.082 4.082,7.082 l -42.149,0 c 18.594,60.613 46.094,104.461 77.813,120.144 0,0 -2.969,-0.195 -5.274,-0.398 -2.402,-0.187 -10.586,-1.25 -10.586,-1.25 -20.703,-15.41 -39.628,-42.316 -55.214,-79.414 -5.157,-12.227 -9.825,-25.324 -14.004,-39.082 l -88.184,0 c 30.938,52.43 74.609,92.312 125.215,112.293 l -2.227,-0.399 c -2.871,-0.793 -11.171,-3.125 -11.171,-3.125 -11.172,-2.89 -28.34,-10.039 -28.34,-10.039 -36.446,-23.332 -67.871,-57.277 -91.485,-98.593 -0.058,-0.051 -0.058,-0.098 -0.097,-0.137 l -36.641,0 -5.273,-7.082 38.027,0 C 195.84,561.953 179.785,502.07 179.199,437.629 l -51.094,0 0,-7.051 51.075,0 c 0.468,-64.406 16.367,-124.297 43.203,-174.16 l -37.461,0 c 0,0 4.922,-6.738 5.234,-7.109 l 36.114,0 c 23.027,-40.391 53.437,-73.829 88.652,-97.188 0,0 12.851,-5.266 18.262,-7.023 0,0 10.781,-3.836 17.031,-5.379 2.422,-0.567 4.746,-1.242 4.746,-1.242 -48.711,20.636 -90.625,59.824 -120.566,110.832 l 88.3,0 c 4.258,-14.036 9.004,-27.305 14.239,-39.719 15.273,-36.25 33.613,-62.774 53.808,-78.36 0,0 6.367,-0.839 11.406,-1.375 l 4.141,-0.429 C 375.254,145.859 348.242,189.465 330,249.309 l 80.762,0 -15.996,7.109 z m -16.563,100.039 c 0.352,1.688 1.699,7.109 1.914,8.367 0.996,-2.148 4.336,-9.785 5.293,-11.875 l -7.207,3.508 z m 18.203,-17.598 c -1.875,3.868 -15.195,31.903 -18.242,37.911 l -0.234,0.078 c -2.266,-6.34 -7.285,-23.274 -8.418,-26.192 l 5.781,-6.484 c 0.527,1.797 1.797,7.215 2.051,7.734 l 10.722,-5.176 c 0.469,-1.054 3.184,-7.5 4.258,-9.816 l 4.082,1.945 z m -66.289,36.348 c 0.254,1.563 1.133,6.621 1.309,7.773 1.074,-1.972 4.922,-8.867 5.996,-10.82 l -7.305,3.047 z m 19.004,-15.637 c -2.168,3.508 -17.09,28.977 -20.488,34.387 l -0.254,0.098 c -1.758,-5.95 -5.43,-21.875 -6.328,-24.563 l 6.094,-5.84 c 0.351,1.692 1.269,6.758 1.425,7.278 l 10.84,-4.387 c 0.528,-0.996 3.555,-6.785 4.727,-8.953 l 3.984,1.98 z m -29.277,10.645 c -1.289,2.305 -17.149,33.39 -19.707,38.098 l -0.235,0.097 c -0.273,-3.586 -1.074,-15.703 -1.269,-17.89 -2.227,3.437 -12.442,20.554 -14.766,24.257 l -0.234,0.078 c 0.117,-5.371 1.406,-26.691 1.465,-30.078 l 6.23,-5.519 c -0.254,3.527 -1.465,18.176 -1.484,19.355 1.211,-1.941 10.039,-16.121 13.418,-21.347 l 0.195,-0.118 c 0.488,4.778 1.016,13.469 1.016,15.235 l 0.019,0 c 1.367,-2.528 10.078,-20.535 11.27,-22.957 l 4.082,0.789 z m 182.129,-8.047 c 0.937,2.09 4.472,9.531 5.488,11.602 0.234,-1.25 1.523,-6.582 1.894,-8.309 l -7.382,-3.293 z m -7.246,-15.742 c 1.152,2.238 4.023,8.554 4.472,9.64 l 10.899,4.981 c 0.273,-0.578 1.504,-5.918 2.011,-7.707 l 5.899,6.348 c -1.133,2.871 -5.938,19.679 -8.125,25.929 l -0.235,-0.09 c -3.203,-5.82 -17.128,-33.359 -19.062,-37.117 l 4.141,-1.984 z m 76.386,43.769 c 1.309,2.188 5.918,10.215 7.207,12.325 0,-1.29 0.118,-7.059 0.118,-8.907 l -7.325,-3.418 z m -9.531,-16.707 c 1.484,2.332 5.195,9.032 5.84,10.235 l 10.957,5.047 c 0.137,-0.606 0.332,-6.454 0.371,-8.348 l 6.738,6.648 c -0.508,3.196 -1.836,21.387 -2.715,28.203 l -0.234,-0.097 c -4.023,-6.219 -21.953,-35.418 -24.394,-39.551 l 3.437,-2.137 z m -36.797,-15.449 c 1.094,2.352 8.809,19.969 10,22.508 l 0.078,0 c 0.078,-1.746 1.172,-10.215 2.032,-14.813 l 0.136,0.067 c 3.223,5.156 11.25,19.054 12.383,20.898 0.059,-1.082 -0.156,-15.359 -0.156,-18.797 l 5.918,5.457 c -0.059,3.254 -0.352,24.075 -0.606,29.231 l -0.234,-0.07 c -2.051,-3.543 -11.465,-20.418 -13.438,-23.719 -0.293,2.117 -1.914,14.422 -2.441,17.918 l -0.273,-0.098 c -2.227,-4.609 -16.524,-35.574 -17.598,-37.851 l 4.199,-0.731 z m -37.148,-8.496 c -2.891,-1.359 -6.817,-2.922 -7.617,-3.254 l 1.484,10.488 c 0.859,5.801 2.383,15.305 2.578,16.387 l -5.937,-2.422 c -0.059,-0.828 -1.719,-12.324 -1.778,-13.086 l -0.879,-6.172 c -0.156,-1.132 -1.66,-11.101 -2.148,-13.613 1.973,0.793 12.637,4.629 13.32,4.953 l 0.977,6.719 z m -36.563,-3.078 c 0.684,1.848 3.203,8.418 3.926,10.215 0.488,-1.407 3.242,-7.762 4.043,-9.727 l -7.969,-0.488 z m -5.039,-13.828 c 0.801,1.945 2.793,7.531 3.106,8.457 l 11.836,0.703 c 0.371,-0.703 2.285,-5.867 3.222,-7.957 l 5.567,4.297 c -1.934,3.554 -10.567,22.566 -14.493,30.301 l -0.273,0 c -2.441,-4.989 -12.832,-28.672 -14.297,-31.895 l 5.332,-3.906 z m -42.109,1.496 c 0.586,2.019 4.394,16.14 5,18.308 l 0.078,0 c 0.781,-1.863 4.883,-11.296 7.461,-16.511 l 0.195,0 c 2.246,4.07 7.793,15.312 8.555,16.804 0.43,-1.211 4.824,-16.191 5.898,-19.812 l 5.703,3.172 c -1.132,3.554 -8.281,25.254 -10.312,30.879 l -0.313,0 c -1.386,-2.91 -7.597,-16.278 -9.003,-18.973 -1.075,2.41 -7.168,15.566 -8.965,19.531 l -0.313,0 c -1.289,-3.965 -8.457,-27.949 -9.062,-29.863 l 5.078,-3.535 z m -38.321,21.433 c -3.183,1.211 -5.429,2.344 -6.347,2.735 l -2.09,10.879 c -1.074,5.851 -2.637,15.058 -2.773,16.113 l -6.817,2.871 c 0.195,-0.945 2.461,-12.344 2.539,-13.027 l 1.192,-6.172 c 0.234,-1.102 2.148,-11.551 2.421,-13.875 2.208,-0.918 12.383,-5.899 13.184,-6.211 l -1.309,6.687 z m -44.707,44.864 14.688,-6.16 -1.504,6.308 -14.59,6.055 1.406,-6.203 z m 464.512,-40 c 0.254,1.222 0.703,2.246 1.309,3.164 0.586,0.949 1.406,1.711 2.344,2.336 0.996,0.664 2.128,1.023 3.359,1.258 1.172,0.167 2.578,0.148 3.984,-0.176 1.465,-0.223 2.696,-0.742 3.77,-1.434 1.035,-0.605 1.855,-1.445 2.5,-2.402 0.722,-0.957 1.152,-1.934 1.347,-3.059 0.235,-1.101 0.235,-2.234 0,-3.437 -0.195,-1.16 -0.625,-2.196 -1.347,-3.145 -0.645,-0.996 -1.446,-1.726 -2.422,-2.344 -0.899,-0.613 -2.012,-1.062 -3.262,-1.257 -1.191,-0.196 -2.558,-0.129 -3.965,0.125 -1.425,0.312 -2.734,0.773 -3.808,1.464 -0.996,0.625 -1.914,1.465 -2.5,2.395 -0.625,0.965 -1.055,1.992 -1.309,3.074 -0.273,1.153 -0.273,2.246 0,3.438 z m -8.242,1.633 c -0.352,-1.946 -0.391,-3.946 -0.176,-6.047 0.293,-2.098 0.996,-4.051 2.129,-5.985 1.094,-1.867 2.676,-3.547 4.688,-4.98 2.011,-1.399 4.511,-2.422 7.558,-3.059 3.086,-0.625 5.899,-0.672 8.203,-0.105 2.403,0.566 4.532,1.472 6.211,2.82 1.699,1.289 3.106,2.863 4.102,4.707 1.015,1.848 1.66,3.75 2.09,5.715 0.332,1.894 0.488,3.906 0.234,6.016 -0.234,2.07 -0.898,4.043 -1.953,5.945 -1.055,1.855 -2.578,3.476 -4.609,4.922 -1.954,1.496 -4.551,2.48 -7.618,3.125 -3.027,0.586 -5.761,0.586 -8.242,0.097 -2.48,-0.566 -4.414,-1.484 -6.23,-2.812 -1.7,-1.328 -3.145,-2.852 -4.141,-4.695 -1.152,-1.848 -1.816,-3.692 -2.246,-5.664 z M 360.996,81.3672 c 1.192,-0.2149 2.188,-0.7109 3.125,-1.3281 0.918,-0.6641 1.699,-1.4649 2.324,-2.4102 0.567,-1.0078 0.996,-2.0898 1.172,-3.293 0.156,-1.2109 0.156,-2.5586 -0.137,-4.0117 -0.292,-1.4648 -0.722,-2.707 -1.445,-3.75 -0.664,-1.0742 -1.484,-1.8867 -2.441,-2.5781 -0.899,-0.625 -1.895,-1.0352 -3.028,-1.2305 -1.132,-0.2461 -2.265,-0.2461 -3.535,0.0274 -1.133,0.2461 -2.09,0.5976 -3.047,1.289 -0.957,0.6446 -1.699,1.4571 -2.343,2.4219 -0.625,0.9883 -0.996,2.1094 -1.192,3.3008 -0.234,1.2305 -0.136,2.6094 0.196,3.9844 0.234,1.457 0.703,2.707 1.406,3.789 0.664,1.0664 1.484,1.8946 2.402,2.5391 0.957,0.6367 2.031,1.0547 3.086,1.2812 1.133,0.2422 2.266,0.2227 3.457,-0.0312 z m 1.66,8.2539 c -1.855,0.3906 -3.965,0.4102 -6.015,0.2031 -2.071,-0.2812 -4.082,-0.9765 -5.957,-2.1094 -1.895,-1.0234 -3.653,-2.6054 -5.02,-4.5703 -1.465,-2.039 -2.5,-4.5781 -3.125,-7.6172 -0.664,-3.1132 -0.684,-5.8984 -0.156,-8.2812 0.527,-2.3906 1.445,-4.4336 2.715,-6.1523 1.269,-1.6993 2.949,-3.1055 4.726,-4.1875 1.817,-1.0079 3.711,-1.6915 5.625,-2.0899 1.914,-0.3828 3.985,-0.5195 6.114,-0.2851 1.953,0.1953 3.984,0.832 5.859,1.8867 1.855,1.082 3.555,2.6054 5,4.5976 1.445,2.0235 2.48,4.5235 3.086,7.6563 0.644,3.0273 0.683,5.7617 0.156,8.125 -0.508,2.5195 -1.406,4.5703 -2.754,6.3476 -1.25,1.75 -2.812,3.1758 -4.609,4.2305 -1.836,1.082 -3.75,1.8047 -5.645,2.2461 z m -55.508,-7.7344 -9.843,3.6914 9.707,11.1524 0.136,-14.8438 z m -1.425,-12.9414 9.746,-3.289 0.371,0.8476 c -0.274,0.0781 -0.469,0.2734 -0.625,0.4492 -0.215,0.1953 -0.293,0.461 -0.293,0.8125 0.058,1.3946 -0.098,29.3555 -0.078,30.7227 0,1.2773 0.058,2.0317 0.117,2.1757 0.156,0.441 0.488,0.586 1.035,0.441 l 0.371,0.918 -12.422,4.649 -0.312,-0.91 c 0.488,-0.254 0.664,-0.614 0.43,-1.063 -0.059,-0.246 -0.743,-1.133 -2.032,-2.676 -1.289,-1.593 -16.367,-19.4449 -18.828,-22.4527 -0.195,-0.1953 -0.39,-0.3125 -0.664,-0.3398 -0.293,-0.0196 -0.527,0 -0.762,0.0586 l -0.371,-0.8985 8.692,-3.5547 0.332,0.8477 c -0.157,0.0312 -0.235,0.1289 -0.43,0.2266 -0.195,0.1445 -0.234,0.4375 -0.098,0.7109 0.098,0.1758 0.293,0.4805 0.586,0.8203 0.313,0.3711 2.657,3.125 2.969,3.5078 l 13.691,-5.1367 c 0,-0.3828 0,-4.1133 0,-4.582 0,-0.4883 -0.039,-0.8399 -0.097,-1.0352 -0.176,-0.293 -0.332,-0.5156 -0.528,-0.4883 -0.273,0.0196 -0.371,0.0977 -0.468,0.0977 l -0.332,-0.8594 z M 79.5117,314.445 l -3.2812,9.981 14.8242,-0.625 -11.543,-9.356 z m -10.9765,-6.886 3.4375,-9.774 0.957,0.293 c -0.1367,0.254 -0.1367,0.496 -0.0977,0.789 0.0977,0.227 0.2149,0.469 0.4493,0.617 1.1132,0.887 22.9492,18.438 23.9453,19.2 1.0547,0.808 1.6211,1.277 1.7773,1.296 0.4297,0.137 0.7617,-0.019 0.9766,-0.527 l 0.9175,0.293 -4.0621,12.52 -0.8593,-0.223 c 0.1367,-0.578 -0.0391,-0.91 -0.4493,-1.047 -0.2539,-0.078 -1.4453,-0.098 -3.457,-0.078 -2.0508,0.078 -25.3515,0.754 -29.2773,0.832 -0.2539,0 -0.5078,0.098 -0.6641,0.301 -0.2148,0.195 -0.3906,0.41 -0.4297,0.683 l -0.9179,-0.3 2.5976,-9.055 0.9766,0.363 c -0.0782,0.078 -0.1367,0.254 -0.1367,0.477 -0.0196,0.195 0.1953,0.363 0.5078,0.488 0.2148,0.051 0.5664,0.059 0.9961,0.051 0.4882,-0.051 4.0429,-0.149 4.5312,-0.149 l 4.5313,-14.011 c -0.3125,-0.176 -3.2422,-2.512 -3.5743,-2.805 -0.3711,-0.281 -0.664,-0.418 -0.8789,-0.508 -0.3515,-0.144 -0.5859,-0.078 -0.7226,0.11 -0.0977,0.164 -0.1953,0.332 -0.2149,0.398 l -0.8593,-0.234 z m 56.3668,-84.336 -5.839,8.73 14.433,3.36 -8.594,-12.09 z m -8.672,-9.59 5.997,-8.524 0.722,0.536 c -0.078,0.226 -0.195,0.5 -0.195,0.793 -0.078,0.273 0,0.535 0.156,0.71 0.899,1.133 17.168,23.946 17.969,25 0.762,1.067 1.23,1.653 1.348,1.719 0.41,0.227 0.781,0.196 1.132,-0.254 l 0.743,0.508 -7.344,10.996 -0.781,-0.488 c 0.273,-0.469 0.214,-0.887 -0.176,-1.141 -0.215,-0.097 -1.348,-0.48 -3.281,-0.996 -1.973,-0.508 -24.571,-6.183 -28.321,-7.148 -0.273,-0.09 -0.547,-0.09 -0.801,0.066 -0.273,0.168 -0.429,0.332 -0.605,0.547 l -0.762,-0.547 5.02,-7.957 0.664,0.516 c -0.02,0.129 -0.059,0.234 -0.156,0.48 -0.079,0.196 0.078,0.41 0.371,0.625 0.156,0.098 0.488,0.203 0.937,0.301 0.488,0.07 3.946,0.949 4.336,1.074 l 8.184,-12.226 c -0.235,-0.293 -2.403,-3.262 -2.676,-3.66 -0.313,-0.372 -0.488,-0.645 -0.684,-0.723 -0.332,-0.207 -0.507,-0.207 -0.664,-0.11 -0.195,0.168 -0.273,0.313 -0.351,0.411 l -0.782,-0.508 z M 464.258,61.1914 453.77,60.4805 l 4.277,14.1679 6.211,-13.457 z m 3.926,-12.3906 10.332,1.0351 -0.02,0.9375 c -0.273,-0.0195 -0.527,0.0586 -0.781,0.1368 -0.254,0.125 -0.41,0.3007 -0.567,0.5351 -0.585,1.4063 -12.187,26.875 -12.675,28.0586 -0.567,1.2383 -0.821,1.8633 -0.821,2.0586 -0.058,0.4219 0.254,0.7227 0.743,0.8203 l -0.059,0.9688 -13.145,-0.9102 0.039,-0.9766 c 0.547,-0.0078 0.879,-0.2617 0.879,-0.7109 0.059,-0.2851 -0.254,-1.3789 -0.8,-3.3203 C 450.781,75.4297 444.395,53 443.418,49.2188 443.379,48.9375 443.184,48.75 442.93,48.5664 442.734,48.418 442.48,48.332 442.246,48.332 l 0.039,-0.9492 9.356,0.2735 -0.059,0.9687 c -0.078,0 -0.273,0 -0.508,0.0273 -0.176,0.0782 -0.351,0.254 -0.351,0.6172 0,0.2227 0.039,0.5664 0.195,1.043 0.156,0.3906 1.133,3.9063 1.25,4.3867 l 14.531,0.9766 c 0.235,-0.3906 1.739,-3.7617 1.914,-4.2305 0.157,-0.3398 0.274,-0.7422 0.274,-0.9062 0.019,-0.3711 -0.059,-0.6055 -0.274,-0.6836 -0.175,-0.0313 -0.371,-0.0977 -0.508,-0.0977 l 0.079,-0.957 z m -285.176,90.9182 9.785,-8.215 0.625,0.695 c -0.215,0.215 -0.313,0.508 -0.391,0.781 -0.078,0.262 -0.078,0.614 0.078,1.083 l 4.727,21.21 c 1.152,0.071 8.066,1.231 9.746,1.426 1.738,0.246 3.262,0.391 4.668,0.489 1.465,0.109 2.422,-0.02 2.988,-0.34 l 0.625,0.691 -9.668,7.969 -0.605,-0.684 c 0.195,-0.273 0.391,-0.566 0.605,-0.984 0.059,-0.274 0,-0.664 -0.351,-1.145 -0.117,-0.086 -0.547,-0.254 -1.25,-0.41 -0.703,-0.105 -1.602,-0.293 -2.754,-0.469 -1.074,-0.164 -14.18,-1.668 -15.137,-1.757 l 9.571,10.996 c 0.371,0.461 0.742,0.597 1.132,0.461 0.371,-0.129 0.782,-0.293 1.172,-0.559 l 0.567,0.754 -8.653,7.957 -0.625,-0.742 c 0.293,-0.176 0.528,-0.457 0.625,-0.84 0.157,-0.379 0,-0.809 -0.39,-1.258 L 170.352,154.23 c -0.352,-0.429 -0.743,-0.656 -1.172,-0.625 -0.391,0.106 -0.703,0.293 -0.957,0.586 l -0.606,-0.714 8.75,-8.028 0.664,0.715 c -0.293,0.254 -0.547,0.652 -0.664,1.035 -0.234,0.371 -0.176,0.762 0.254,1.18 l 4.199,4.902 8.535,1.426 c -0.097,-0.418 -2.968,-12.676 -3.144,-13.34 -0.137,-0.633 -0.332,-1.004 -0.41,-1.133 -0.391,-0.437 -0.762,-0.586 -1.231,-0.418 -0.429,0.196 -0.722,0.372 -0.996,0.567 l -0.566,-0.664 z m 241.875,-92.3362 12.773,-0.1367 0.039,0.9297 c -0.293,0.0859 -0.547,0.1953 -0.859,0.3398 -0.176,0.2149 -0.332,0.5 -0.527,0.9375 l -9.805,19.4922 c 0.84,0.7149 5.449,5.9883 6.66,7.2578 1.211,1.2383 2.363,2.3711 3.359,3.3008 1.036,1.0039 1.856,1.5313 2.481,1.6289 l 0.098,0.8985 -12.598,0.0781 0,-0.9375 c 0.332,-0.0391 0.664,-0.1641 1.035,-0.3321 0.332,-0.1835 0.566,-0.5546 0.508,-1.1718 0,-0.1055 -0.234,-0.4375 -0.664,-1.0235 -0.449,-0.539 -1.172,-1.3086 -1.914,-2.1484 -0.723,-0.8594 -9.942,-10.2852 -10.528,-10.957 l 0.411,14.5781 c 0.019,0.625 0.214,0.9375 0.586,1.0859 0.39,0.1172 0.761,0.2344 1.23,0.2539 l 0.02,0.9453 -11.758,0.7813 -0.059,-1.0352 c 0.41,0.0586 0.762,-0.039 1.016,-0.2343 0.312,-0.2227 0.527,-0.6133 0.527,-1.1719 l -0.996,-30.1055 c -0.039,-0.5976 -0.195,-0.9765 -0.547,-1.1719 -0.332,-0.1953 -0.703,-0.246 -1.113,-0.1953 l 0,-0.9375 11.855,-0.6757 0.02,0.9687 c -0.43,0.0273 -0.801,0.1367 -1.153,0.3516 -0.39,0.1367 -0.605,0.5156 -0.585,1.1328 l 0.234,6.4336 5.664,6.5039 c 0.156,-0.418 5.742,-11.6797 6.035,-12.2735 0.254,-0.6445 0.43,-1.0156 0.43,-1.1445 0,-0.6133 -0.313,-0.9453 -0.742,-1.1133 -0.411,-0.1445 -0.801,-0.1836 -1.114,-0.1836 l -0.019,-0.9492 z m -148.77,40.9297 -16.074,8.0938 3.555,7.0037 L 274.16,98 c 0.293,-0.0898 0.469,-0.3047 0.567,-0.6836 0.136,-0.293 0,-0.7617 -0.332,-1.4766 l 0.703,-0.371 4.648,9.2302 -0.703,0.332 c -0.352,-0.644 -0.684,-1.035 -0.996,-1.113 -0.371,-0.051 -0.645,-0.051 -0.859,0.047 l -10.567,5.363 2.852,5.711 16.425,-8.348 c 0.235,-0.128 0.43,-0.39 0.528,-0.734 0.117,-0.293 0,-0.809 -0.352,-1.504 l 0.684,-0.34 4.785,9.473 -0.684,0.312 c -0.312,-0.636 -0.625,-0.988 -0.957,-1.066 -0.351,-0.098 -0.566,-0.039 -0.839,0.078 L 263.516,125.891 263.105,125 c 0.411,-0.242 0.704,-0.547 0.938,-0.809 0.273,-0.343 0.273,-0.734 -0.02,-1.25 L 250.43,96.125 c -0.235,-0.5195 -0.567,-0.7422 -0.938,-0.7422 -0.41,0.0391 -0.801,0.086 -1.23,0.2539 l -0.43,-0.8008 25.059,-12.7539 c 0.468,-0.2461 0.761,-0.4101 0.937,-0.625 0.176,-0.1953 0.176,-0.6562 0.039,-1.4375 l 0.547,-0.2617 4.688,9.2266 -0.645,0.3828 c -0.84,-1.1055 -1.621,-1.4453 -2.344,-1.0547 z m -51.035,28.2035 -14.57,10.476 4.531,6.36 9.609,-6.973 c 0.196,-0.117 0.372,-0.391 0.43,-0.684 0.098,-0.39 -0.117,-0.832 -0.547,-1.457 l 0.645,-0.437 5.976,8.398 -0.644,0.418 c -0.41,-0.605 -0.781,-0.918 -1.113,-0.945 -0.352,-0.07 -0.606,0 -0.86,0.125 l -9.609,6.933 3.691,5.176 15,-10.73 c 0.176,-0.176 0.371,-0.391 0.43,-0.715 0.039,-0.371 -0.195,-0.887 -0.645,-1.473 l 0.664,-0.461 6.114,8.606 -0.645,0.437 c -0.39,-0.566 -0.762,-0.859 -1.094,-0.886 -0.332,-0.071 -0.586,0.027 -0.8,0.175 l -23.262,16.688 -0.527,-0.77 c 0.332,-0.293 0.605,-0.617 0.761,-0.957 0.176,-0.343 0.157,-0.734 -0.195,-1.191 l -17.461,-24.465 c -0.312,-0.476 -0.703,-0.664 -1.133,-0.586 -0.371,0.078 -0.761,0.195 -1.133,0.43 l -0.546,-0.742 22.812,-16.465 c 0.469,-0.254 0.684,-0.516 0.82,-0.731 0.137,-0.226 0.039,-0.695 -0.175,-1.406 l 0.468,-0.41 6.075,8.484 -0.567,0.461 c -0.976,-0.969 -1.797,-1.191 -2.5,-0.683 z M 84.5703,375.207 67.2461,371.465 c -2.0703,-0.488 -3.9844,-1.133 -5.6836,-1.934 -1.7383,-0.906 -3.1641,-2.097 -4.2969,-3.504 -1.1328,-1.347 -1.7968,-3.078 -2.2265,-5.117 -0.3321,-1.992 -0.1953,-4.367 0.2929,-7.14 0.625,-2.704 1.4649,-4.922 2.5782,-6.641 1.1328,-1.707 2.5,-2.977 4.1015,-3.789 1.6016,-0.84 3.418,-1.277 5.3321,-1.406 1.9335,-0.106 3.9062,0.05 6.0156,0.468 l 17.4023,3.692 c 0.5664,0.129 0.9375,0.051 1.1914,-0.293 0.1953,-0.321 0.3907,-0.75 0.5078,-1.192 l 0.9961,0.168 -2.7343,11.082 -0.918,-0.175 c -0.0391,-0.274 -0.0781,-0.469 -0.1953,-0.731 -0.1367,-0.324 -0.4297,-0.519 -1.0156,-0.637 l -18.8282,-3.945 c -1.9531,-0.437 -3.457,-0.156 -4.5117,0.82 -1.1328,0.93 -1.9141,2.344 -2.3242,4.211 -0.3711,1.817 -0.2734,3.465 0.3906,4.754 0.586,1.36 1.9336,2.16 3.9063,2.598 l 18.7695,3.965 c 0.5664,0.117 0.918,0.07 1.1328,-0.125 0.1758,-0.227 0.3125,-0.442 0.4297,-0.664 l 0.9375,0.222 -1.9922,11.262 -0.8594,-0.187 c 0.0391,-0.457 0.0391,-0.946 -0.039,-1.309 -0.0586,-0.391 -0.4297,-0.633 -1.0352,-0.711 z M 150.547,221.328 136.738,210 c -1.601,-1.348 -3.008,-2.773 -4.101,-4.375 -1.153,-1.562 -1.875,-3.25 -2.246,-5.047 -0.332,-1.75 -0.235,-3.566 0.41,-5.558 0.625,-1.973 1.816,-3.993 3.613,-6.153 1.699,-2.176 3.457,-3.73 5.293,-4.754 1.836,-0.918 3.633,-1.425 5.41,-1.425 1.797,0 3.613,0.39 5.371,1.179 1.778,0.801 3.457,1.875 5.059,3.156 l 13.75,11.387 c 0.488,0.352 0.879,0.449 1.25,0.274 0.312,-0.157 0.644,-0.442 1.016,-0.813 l 0.722,0.617 -7.48,8.575 -0.742,-0.625 c 0.097,-0.196 0.136,-0.442 0.175,-0.743 0.059,-0.293 -0.156,-0.664 -0.586,-1.007 L 148.77,192.461 c -1.543,-1.231 -2.989,-1.727 -4.395,-1.328 -1.406,0.312 -2.734,1.172 -3.926,2.656 -1.191,1.524 -1.836,2.981 -1.894,4.426 -0.078,1.426 0.683,2.812 2.207,4.043 l 14.902,12.273 c 0.449,0.371 0.84,0.52 1.113,0.43 0.293,-0.066 0.528,-0.203 0.684,-0.371 l 0.742,0.637 -6.992,9.023 -0.723,-0.566 c 0.254,-0.442 0.469,-0.86 0.567,-1.192 0.078,-0.402 -0.078,-0.773 -0.508,-1.164 z m -62.7931,45.527 20.2541,10.411 0.078,-0.125 -16.0743,-18.594 24.5703,2.078 0.039,-0.098 -20.2538,-10.488 c -0.4297,-0.234 -0.8399,-0.234 -1.1524,-0.047 -0.2734,0.203 -0.5468,0.496 -0.8203,0.887 l -0.8203,-0.438 5.1367,-9.211 0.7813,0.422 c -0.0977,0.321 -0.1367,0.625 -0.1367,0.926 0.039,0.383 0.2734,0.645 0.7615,0.91 l 26.719,13.739 c 0.527,0.273 0.879,0.324 1.172,0.097 0.254,-0.164 0.488,-0.359 0.703,-0.566 l 0.82,0.402 -6.855,12.254 -0.86,-0.449 c 0.176,-0.332 0.215,-0.586 0.313,-0.809 0.019,-0.195 -0.059,-0.422 -0.313,-0.527 -0.234,-0.176 -0.82,-0.285 -1.933,-0.41 -1.055,-0.098 -10.977,-0.821 -12.344,-0.957 0.313,0.332 6.992,7.898 7.949,8.855 0.938,1.086 1.524,1.633 1.68,1.731 0.254,0.105 0.391,0.086 0.586,-0.098 0.137,-0.176 0.273,-0.449 0.508,-0.695 l 0.801,0.441 -5.938,12.539 -0.84,-0.402 c 0.137,-0.32 0.156,-0.613 0.156,-1.035 0,-0.34 -0.273,-0.664 -0.761,-0.887 l -26.6409,-13.77 c -0.4883,-0.253 -0.8985,-0.293 -1.211,-0.058 -0.2734,0.222 -0.5078,0.476 -0.7226,0.711 l -0.8203,-0.438 4.1406,-9.035 0.8789,0.442 c -0.1953,0.496 -0.3125,0.906 -0.3125,1.277 0,0.402 0.2148,0.715 0.7617,1.015 z m 674.4921,21.614 c 0.527,1.121 1.211,2.051 1.973,2.793 0.84,0.82 1.836,1.386 2.89,1.824 1.036,0.383 2.227,0.539 3.457,0.527 1.25,-0.086 2.539,-0.41 3.868,-1.004 1.367,-0.597 2.48,-1.347 3.359,-2.207 0.898,-0.82 1.562,-1.769 1.953,-2.882 0.488,-1.082 0.664,-2.149 0.664,-3.27 0,-1.094 -0.234,-2.238 -0.683,-3.398 -0.45,-1.028 -1.172,-2.004 -1.973,-2.793 -0.84,-0.774 -1.816,-1.34 -2.871,-1.758 -1.055,-0.371 -2.188,-0.586 -3.418,-0.52 -1.27,0.051 -2.5,0.422 -3.906,0.989 -1.348,0.593 -2.5,1.289 -3.399,2.156 -0.84,0.898 -1.523,1.777 -1.972,2.863 -0.391,1.121 -0.567,2.168 -0.567,3.367 0,1.086 0.215,2.239 0.625,3.313 z m -7.598,3.359 c -0.82,-1.867 -1.289,-3.808 -1.445,-5.918 -0.195,-2.148 0.059,-4.219 0.742,-6.262 0.703,-2.07 1.875,-4.003 3.535,-5.808 1.719,-1.895 3.946,-3.418 6.778,-4.61 2.93,-1.269 5.547,-1.914 8.125,-1.886 2.363,0.051 4.59,0.558 6.523,1.476 1.914,0.879 3.633,2.157 5,3.7 1.367,1.64 2.442,3.312 3.184,5.148 0.82,1.758 1.308,3.738 1.582,5.828 0.195,2.063 0,4.16 -0.703,6.223 -0.703,2.051 -1.797,4.031 -3.418,5.789 -1.699,1.836 -3.965,3.359 -6.875,4.629 -2.832,1.242 -5.41,1.855 -7.969,1.836 -2.422,0 -4.746,-0.469 -6.68,-1.387 -1.992,-0.945 -3.613,-2.156 -5.058,-3.711 -1.465,-1.551 -2.539,-3.25 -3.321,-5.047 z m -3.457,-42.695 -8.046,4.812 3.339,5.586 c 0.86,1.367 1.758,2.18 2.715,2.375 0.977,0.196 2.129,-0.078 3.614,-1.008 1.464,-0.839 2.304,-1.746 2.539,-2.781 0.195,-1.027 -0.118,-2.277 -1.036,-3.801 l -3.125,-5.183 z m -16.015,-0.274 25.722,-15.41 c 0.567,-0.312 0.821,-0.636 0.821,-0.929 0,-0.34 -0.02,-0.516 -0.059,-0.665 l 0.801,-0.488 5.625,9.328 -0.801,0.535 c -0.234,-0.261 -0.469,-0.535 -0.801,-0.683 -0.273,-0.215 -0.683,-0.137 -1.23,0.148 l -8.34,5.028 3.633,6.132 c 0.82,1.387 1.445,2.747 1.914,4.161 0.469,1.386 0.625,2.754 0.469,4.14 -0.196,1.407 -0.742,2.774 -1.641,4.114 -0.918,1.308 -2.324,2.585 -4.277,3.769 -1.973,1.191 -3.809,1.863 -5.43,2.012 -1.602,0.117 -2.988,0 -4.258,-0.5 -1.269,-0.555 -2.461,-1.317 -3.496,-2.43 -0.957,-1.055 -1.875,-2.285 -2.734,-3.664 l -8.457,-14.277 0.781,-0.489 c 0.078,0.098 0.312,0.196 0.547,0.403 0.293,0.136 0.683,0.086 1.211,-0.235 z m 68.144,82.176 -28.574,9.18 c -0.547,0.168 -0.84,0.469 -0.898,0.82 -0.02,0.332 -0.02,0.793 0.078,1.27 l -0.899,0.324 -3.047,-10.606 0.86,-0.351 c 0.215,0.496 0.449,0.859 0.703,1.121 0.273,0.285 0.723,0.285 1.25,0.129 l 14.746,-4.797 c -2.09,-0.711 -15.273,-5.234 -16.445,-5.613 -1.153,-0.371 -1.641,-0.508 -1.817,-0.469 -0.625,0.098 -0.839,0.418 -0.918,0.723 -0.019,0.32 -0.078,0.644 -0.019,0.984 l -0.899,0.273 -5.058,-14.238 0.937,-0.273 c 0.235,0.429 0.43,0.82 0.664,1.074 0.235,0.215 0.645,0.266 1.172,0.117 l 28.555,-9.199 c 0.605,-0.184 0.879,-0.508 0.937,-0.809 0.04,-0.332 0.04,-0.742 -0.019,-1.164 l 0.879,-0.293 3.594,10.168 -0.899,0.313 c -0.156,-0.461 -0.39,-0.793 -0.644,-1.008 -0.254,-0.273 -0.645,-0.301 -1.192,-0.106 l -19.648,6.356 -0.098,0.176 c 3.027,0.851 13.945,4.699 16.27,5.508 2.187,0.753 4.179,1.457 5.644,1.914 1.465,0.449 2.5,0.636 2.969,0.5 0.391,-0.149 0.625,-0.422 0.605,-0.918 0,-0.43 -0.136,-0.852 -0.254,-1.145 l 0.879,-0.254 3.36,11.281 -0.938,0.243 c -0.215,-0.45 -0.468,-0.86 -0.703,-1.094 -0.215,-0.274 -0.586,-0.332 -1.133,-0.137 z M 607.285,91.3477 594.805,118.566 c -0.293,0.516 -0.293,0.899 0,1.2 0.195,0.293 0.508,0.586 0.976,0.832 l -0.39,0.859 -9.903,-4.922 0.352,-0.859 c 0.469,0.144 0.898,0.234 1.269,0.234 0.332,0 0.645,-0.285 0.899,-0.812 l 6.504,-14.16 c -1.992,1.085 -14.219,7.773 -15.293,8.371 -1.035,0.586 -1.426,0.82 -1.563,1.043 -0.293,0.429 -0.273,0.851 -0.058,1.144 0.234,0.254 0.449,0.488 0.683,0.613 l -0.39,0.871 -13.828,-5.89 0.429,-0.918 c 0.41,0.207 0.821,0.226 1.172,0.226 0.391,0 0.684,-0.246 0.957,-0.839 l 12.461,-27.2192 c 0.234,-0.5273 0.234,-0.9062 0.039,-1.1914 -0.234,-0.3515 -0.508,-0.5273 -0.898,-0.7226 l 0.429,-0.8867 9.922,4.2187 -0.41,0.8594 c -0.41,-0.1484 -0.82,-0.2266 -1.172,-0.2266 -0.351,0.0586 -0.683,0.3516 -0.879,0.8125 l -8.613,18.7696 0.098,0.2153 c 2.617,-1.6411 12.832,-7.0825 14.98,-8.2153 2.11,-1.1524 3.848,-2.0899 5.293,-2.8907 1.348,-0.7695 2.168,-1.4257 2.324,-1.8554 0.215,-0.3907 0.196,-0.7618 -0.156,-1.0039 -0.469,-0.3243 -0.762,-0.5196 -1.074,-0.6446 l 0.41,-0.9101 10.449,5.2461 -0.371,0.8789 c -0.527,-0.168 -0.918,-0.2735 -1.269,-0.2735 -0.332,0 -0.645,0.3008 -0.899,0.8282 z m 47.11,68.8473 -9.805,-7.656 0.547,-0.723 c 0.586,0.332 0.976,0.579 1.367,0.704 0.371,0.078 0.762,-0.125 1.113,-0.586 l 18.555,-23.504 c 0.351,-0.489 0.41,-0.821 0.234,-1.164 -0.156,-0.371 -0.527,-0.789 -0.996,-1.219 l 0.645,-0.742 9.804,7.675 -0.527,0.762 c -0.566,-0.371 -0.996,-0.566 -1.348,-0.664 -0.39,-0.098 -0.781,0.067 -1.171,0.516 l -18.497,23.496 c -0.41,0.449 -0.507,0.871 -0.312,1.23 0.176,0.364 0.508,0.743 0.957,1.164 l -0.566,0.711 z m -96.465,-55.547 -11.778,-4.179 0.313,-0.9065 c 0.644,0.1641 1.094,0.2344 1.504,0.1953 0.39,-0.0312 0.664,-0.293 0.859,-0.8515 l 10.117,-28.25 c 0.215,-0.5665 0.215,-0.9766 -0.117,-1.1915 -0.293,-0.3046 -0.683,-0.5195 -1.289,-0.8007 l 0.313,-0.8985 11.699,4.2266 -0.313,0.9101 c -0.625,-0.1953 -1.093,-0.246 -1.484,-0.2148 -0.43,0.0195 -0.664,0.3398 -0.879,0.8281 L 556.797,101.77 c -0.176,0.507 -0.156,0.964 0.176,1.179 0.273,0.274 0.703,0.559 1.289,0.821 l -0.332,0.878 z m -52.168,-15.2808 -0.469,2.2656 c -0.957,-0.7148 -2.012,-1.5234 -2.949,-2.4726 -1.035,-0.9454 -1.856,-2.0782 -2.578,-3.2618 -0.625,-1.1992 -1.075,-2.5078 -1.348,-3.9648 -0.293,-1.3867 -0.293,-2.957 0.02,-4.6367 0.371,-1.9531 1.035,-3.4571 2.128,-4.6797 0.997,-1.2578 2.344,-1.7188 4.024,-1.3867 1.269,0.2461 2.226,0.9375 2.969,2.0429 0.82,1.0821 1.015,2.4414 0.742,4.1602 -0.43,1.9727 -1.25,3.3086 -2.403,3.9648 -1.23,0.6836 -2.539,0.8086 -4.003,0.5664 -0.04,1.7461 0.332,3.1836 1.093,4.3946 0.821,1.1797 1.758,2.2461 2.774,3.0078 z m 224.355,117.2928 -6.504,-8.32 -7.617,12.598 14.121,-4.278 z m 11.758,-5.371 6.152,8.32 -0.8,0.618 c -0.157,-0.196 -0.391,-0.391 -0.645,-0.489 -0.293,-0.129 -0.488,-0.129 -0.742,-0.031 -1.406,0.5 -27.871,8.84 -29.18,9.231 -1.172,0.437 -1.972,0.761 -2.109,0.847 -0.352,0.293 -0.371,0.676 -0.117,1.106 l -0.723,0.632 -8.125,-10.371 0.762,-0.593 c 0.351,0.379 0.8,0.468 1.152,0.183 0.176,-0.183 0.859,-1.211 1.914,-2.89 1.133,-1.739 13.457,-21.446 15.586,-24.715 0.137,-0.227 0.215,-0.5 0.137,-0.793 -0.02,-0.274 -0.137,-0.547 -0.293,-0.711 l 0.742,-0.617 6.055,7.246 -0.723,0.578 c -0.098,-0.149 -0.215,-0.246 -0.391,-0.344 -0.156,-0.137 -0.41,-0.098 -0.722,0.098 -0.117,0.156 -0.332,0.39 -0.567,0.84 -0.273,0.39 -2.148,3.418 -2.422,3.789 l 9.082,11.504 c 0.352,-0.118 3.79,-1.18 4.219,-1.356 0.391,-0.168 0.762,-0.332 0.899,-0.43 0.293,-0.285 0.41,-0.449 0.293,-0.683 -0.079,-0.168 -0.196,-0.274 -0.274,-0.371 l 0.84,-0.598 z m -113.086,-86.191 -9.004,-5.391 -2.676,14.531 11.68,-9.14 z m 9.18,-9.219 8.652,5.637 -0.488,0.808 c -0.195,-0.144 -0.41,-0.242 -0.703,-0.242 -0.293,0 -0.528,0.098 -0.762,0.273 -1.074,0.938 -22.988,18.282 -23.945,19.149 -1.035,0.82 -1.582,1.328 -1.66,1.496 -0.293,0.398 -0.137,0.789 0.292,1.082 l -0.468,0.84 -11.328,-6.758 0.449,-0.801 c 0.508,0.246 0.82,0.137 1.074,-0.273 0.098,-0.223 0.449,-1.445 0.879,-3.438 0.391,-1.98 4.883,-24.8434 5.703,-28.6207 0.039,-0.293 0,-0.6172 -0.195,-0.8125 -0.098,-0.2344 -0.293,-0.418 -0.489,-0.5274 l 0.45,-0.8281 8.261,4.5195 -0.507,0.8125 c -0.098,-0.039 -0.235,-0.1289 -0.469,-0.1953 -0.195,-0.0195 -0.391,0.0664 -0.586,0.3594 -0.137,0.2656 -0.195,0.5469 -0.332,0.9961 -0.039,0.5 -0.664,4.0155 -0.781,4.4645 l 12.578,7.489 c 0.254,-0.235 3.144,-2.52 3.535,-2.84 0.332,-0.324 0.605,-0.567 0.723,-0.742 0.195,-0.325 0.214,-0.528 0.019,-0.684 -0.137,-0.148 -0.293,-0.234 -0.41,-0.352 l 0.508,-0.812 z m -101.836,-31.5431 -10.078,-2.7617 1.347,14.7461 8.731,-11.9844 z m 6.347,-11.3476 9.903,3.039 -0.195,0.8985 c -0.235,-0.0703 -0.528,-0.0703 -0.801,0 -0.274,0.0273 -0.469,0.1953 -0.567,0.418 -0.898,1.1914 -17.324,23.8867 -18.066,24.9531 -0.742,1.1133 -1.152,1.6875 -1.191,1.8242 -0.157,0.4414 0.097,0.8203 0.585,1.0078 l -0.273,0.8984 -12.715,-3.4101 0.293,-0.9453 c 0.547,0.0859 0.879,-0.0899 0.977,-0.5586 0.078,-0.293 0.019,-1.375 -0.098,-3.4766 -0.156,-1.9726 -2.031,-25.2422 -2.246,-29.1797 0,-0.2812 -0.098,-0.4882 -0.313,-0.7304 -0.214,-0.2071 -0.468,-0.3047 -0.703,-0.4024 l 0.235,-0.9062 9.14,2.1367 -0.273,0.9375 c -0.098,-0.0195 -0.234,-0.0195 -0.43,-0.0469 -0.215,0 -0.371,0.1445 -0.488,0.5352 -0.02,0.207 -0.02,0.5 0,1.0156 0.078,0.4414 0.332,4.1328 0.332,4.543 l 14.16,3.8945 c 0.195,-0.3203 2.324,-3.3477 2.617,-3.7109 0.274,-0.4493 0.391,-0.75 0.469,-0.9375 0.098,-0.3789 0.02,-0.6055 -0.137,-0.7032 -0.156,-0.125 -0.332,-0.1836 -0.429,-0.1836 l 0.214,-0.9101 z m 171.563,105.3437 8.652,9.492 -0.683,0.684 c -0.196,-0.188 -0.489,-0.324 -0.762,-0.371 -0.254,-0.078 -0.645,-0.032 -1.191,0.097 l -20.821,5.762 c -0.039,1.18 -0.742,8.133 -0.898,9.863 -0.137,1.727 -0.156,3.309 -0.195,4.707 0,1.446 0.175,2.411 0.507,2.969 l -0.703,0.672 -8.476,-9.316 0.722,-0.606 c 0.235,0.176 0.567,0.332 0.918,0.488 0.371,0.149 0.742,0 1.172,-0.312 0.117,-0.156 0.235,-0.547 0.391,-1.309 0.097,-0.711 0.234,-1.621 0.371,-2.754 0.078,-1.179 0.84,-14.316 0.937,-15.222 l -10.468,10.117 c -0.43,0.352 -0.567,0.723 -0.43,1.121 0.156,0.391 0.391,0.762 0.625,1.125 l -0.703,0.645 -8.36,-8.274 0.665,-0.711 c 0.214,0.371 0.527,0.606 0.878,0.692 0.352,0.097 0.762,-0.067 1.172,-0.469 l 21.543,-20.899 c 0.43,-0.39 0.528,-0.789 0.43,-1.179 0,-0.391 -0.195,-0.637 -0.449,-0.879 l 0.644,-0.664 8.496,8.242 -0.683,0.684 c -0.274,-0.286 -0.684,-0.508 -1.055,-0.684 -0.391,-0.148 -0.742,-0.051 -1.191,0.379 l -4.61,4.465 -1.074,8.593 c 0.43,-0.128 12.5,-3.546 13.086,-3.742 0.703,-0.222 1.016,-0.398 1.133,-0.496 0.41,-0.41 0.547,-0.812 0.371,-1.211 -0.234,-0.449 -0.449,-0.801 -0.625,-0.996 l 0.664,-0.703 z m -197.168,-66.113 1.465,-4.8752 11.816,3.5152 -1.426,4.903 -11.855,-3.543 z m 0.762,-2.4221 11.777,3.5231 m 288.516,429.856 2.968,0.801 c -1.113,1.484 -2.304,2.929 -3.73,4.304 -1.406,1.387 -2.988,2.571 -4.648,3.418 -1.68,0.93 -3.477,1.496 -5.469,1.828 -1.934,0.301 -3.965,0.164 -6.153,-0.441 -2.421,-0.723 -4.355,-1.863 -5.839,-3.523 -1.485,-1.653 -1.836,-3.704 -1.192,-6.114 0.528,-1.828 1.602,-3.273 3.223,-4.308 1.582,-1.024 3.457,-1.231 5.586,-0.633 2.578,0.722 4.179,2 4.863,3.847 0.664,1.895 0.723,3.868 0.137,6.036 2.207,0.203 4.16,-0.227 5.879,-1.321 1.738,-1.101 3.203,-2.41 4.375,-3.894 z m 0.957,-29.434 -3.692,18.035 -1.25,-0.242 c 0.196,-0.937 0.196,-1.66 0.137,-2.199 -0.137,-0.586 -0.547,-0.926 -1.269,-1.055 l -38.243,-8.093 c -0.742,-0.149 -1.269,0 -1.582,0.476 -0.215,0.488 -0.527,1.172 -0.781,2.063 l -1.23,-0.247 3.711,-18.093 1.191,0.273 c -0.137,0.906 -0.156,1.68 -0.059,2.246 0.098,0.547 0.508,0.926 1.27,1.074 l 38.183,8.028 c 0.743,0.176 1.27,0 1.582,-0.488 0.293,-0.461 0.586,-1.153 0.84,-2.004 l 1.192,0.226 z m -714.707,142.723 -9.6292,-15.703 1.0937,-0.614 c 0.4883,0.75 0.9571,1.29 1.4453,1.641 0.4102,0.332 0.9375,0.313 1.6211,-0.07 L 132.09,611.418 c 0.644,-0.371 0.898,-0.852 0.801,-1.398 -0.098,-0.528 -0.352,-1.258 -0.782,-2.11 l 1.075,-0.613 9.589,15.73 -1.035,0.645 c -0.547,-0.781 -1.035,-1.317 -1.504,-1.66 -0.429,-0.34 -0.957,-0.321 -1.601,0.051 l -33.399,20.261 c -0.625,0.403 -0.898,0.91 -0.82,1.457 0.117,0.535 0.391,1.258 0.781,2.059 l -1.015,0.625 z m 216.758,163.613 -17.481,-5.711 0.371,-1.183 c 0.899,0.234 1.68,0.332 2.227,0.312 0.508,-0.008 0.879,-0.43 1.191,-1.133 l 12.246,-37.156 c 0.235,-0.695 0.137,-1.211 -0.273,-1.562 -0.489,-0.391 -1.114,-0.754 -1.992,-1.075 l 0.39,-1.172 17.5,5.704 -0.39,1.16 c -0.977,-0.235 -1.661,-0.321 -2.149,-0.282 -0.644,0.02 -1.055,0.352 -1.289,1.075 l -12.168,37.129 c -0.234,0.711 -0.156,1.257 0.293,1.621 0.41,0.351 0.977,0.691 1.934,1.074 l -0.41,1.199 z m 484.531,-253.328 -6.192,17.371 -1.132,-0.391 c 0.234,-0.937 0.371,-1.66 0.371,-2.226 -0.039,-0.586 -0.391,-0.984 -1.036,-1.211 l -36.738,-13.32 c -0.683,-0.262 -1.211,-0.164 -1.582,0.234 -0.39,0.469 -0.781,1.106 -1.113,1.965 l -1.172,-0.442 6.152,-17.371 1.133,0.418 c -0.254,0.899 -0.351,1.653 -0.351,2.2 0.019,0.546 0.351,0.976 1.074,1.25 l 36.68,13.289 c 0.703,0.273 1.269,0.187 1.64,-0.254 0.41,-0.449 0.781,-1.102 1.094,-1.934 l 1.172,0.422 z m -72.207,129.707 -10.508,12.09 -0.996,-0.754 c 0.176,-0.262 0.273,-0.516 0.332,-0.848 0.058,-0.324 -0.137,-0.703 -0.508,-1.125 -0.254,-0.281 -23.633,-32.48 -23.867,-32.644 -0.606,-0.422 -1.875,-0.383 -3.027,0.789 l -1.016,-0.723 12.422,-14.793 0.976,0.723 c -0.371,0.625 -0.547,1.199 -0.722,1.648 -0.157,0.481 -0.059,0.852 0.273,1.067 0.274,0.222 1.035,0.566 2.168,1.015 1.191,0.418 18.516,6.368 19.922,6.864 1.289,0.488 2.207,0.859 2.715,1.074 l 0.117,-0.137 c -0.332,-0.418 -0.938,-1.238 -1.738,-2.41 -0.84,-1.164 -11.172,-16.406 -11.934,-17.422 -0.703,-1.055 -1.269,-1.719 -1.543,-1.914 -0.527,-0.383 -1.504,0.027 -2.715,1.367 l -0.976,-0.773 11.211,-16.024 0.957,0.743 c -0.879,1.511 -0.489,2.675 0.175,3.164 0.157,0.117 35.411,13.652 36.016,13.886 0.801,0.254 1.387,0.43 1.934,0.547 0.586,0.086 1.133,-0.168 1.777,-0.781 l 0.977,0.762 -8.282,12.644 -0.996,-0.762 c 0.43,-0.507 0.664,-1.023 0.84,-1.64 0.098,-0.547 -0.117,-1.094 -0.683,-1.543 -0.372,-0.254 -23.868,-9.629 -24.532,-9.988 l -0.117,0.175 c 0.313,0.379 13.379,19.852 14.102,20.926 0.722,1.055 1.191,1.653 1.347,1.77 0.625,0.437 1.153,0.535 1.621,0.254 0.567,-0.286 0.996,-0.704 1.387,-1.192 l 0.957,0.75 -11.367,14.883 -0.918,-0.781 c 0.352,-0.41 0.547,-0.965 0.723,-1.512 0.156,-0.625 -0.078,-1.113 -0.645,-1.594 -0.371,-0.254 -1.094,-0.593 -2.305,-1.043 -1.152,-0.449 -22.871,-7.754 -23.535,-8.097 l -0.078,0.109 c 0.41,0.555 15.938,21.25 16.192,21.406 0.546,0.457 1.132,0.508 1.621,0.235 0.527,-0.313 0.957,-0.684 1.308,-1.125 l 0.938,0.734 z m 27.246,-94.707 -7.149,13.691 19.414,1.512 -12.265,-15.203 z m -12.559,-11.973 6.387,-14.484 1.094,0.547 c -0.176,0.344 -0.254,0.695 -0.293,1.125 -0.02,0.418 0.117,0.723 0.332,1.004 1.25,1.398 25.879,31.711 26.972,33.039 1.094,1.297 1.778,2.051 1.973,2.137 0.527,0.304 1.035,0.078 1.484,-0.575 l 1.036,0.547 -8.75,17.149 -1.075,-0.559 c 0.274,-0.769 0.196,-1.289 -0.312,-1.57 -0.332,-0.149 -1.777,-0.383 -4.414,-0.637 -2.735,-0.262 -34.766,-3.437 -39.824,-3.984 -0.371,-0.039 -0.704,0.039 -1.036,0.285 -0.312,0.262 -0.605,0.554 -0.742,0.879 l -1.074,-0.547 7.031,-12.363 1.075,0.574 c -0.059,0.156 -0.176,0.402 -0.235,0.695 -0.058,0.293 0.059,0.594 0.547,0.82 0.176,0.118 0.605,0.196 1.27,0.254 0.566,0.059 5.625,0.469 6.113,0.586 l 9.98,-19.152 c -0.351,-0.371 -3.769,-4.512 -4.16,-4.969 -0.41,-0.48 -0.781,-0.742 -0.957,-0.871 -0.488,-0.215 -0.781,-0.215 -0.957,0.039 -0.195,0.215 -0.371,0.442 -0.449,0.617 l -1.016,-0.586 z m -65.469,118.809 -11.503,10.254 17.5,8.281 -5.997,-18.535 z m -7.558,-15.695 11.133,-11.231 0.84,0.899 c -0.293,0.214 -0.547,0.539 -0.723,0.929 -0.156,0.371 -0.156,0.711 -0.02,1.055 0.645,1.797 12.891,38.855 13.477,40.449 0.644,1.641 1.035,2.547 1.133,2.696 0.39,0.468 0.879,0.449 1.562,-0.032 l 0.781,0.91 -14.199,12.95 -0.801,-0.911 c 0.547,-0.585 0.586,-1.132 0.176,-1.562 -0.176,-0.293 -1.484,-1.004 -3.847,-2.168 -2.461,-1.238 -31.289,-15.574 -35.801,-17.871 -0.332,-0.176 -0.664,-0.215 -1.074,-0.078 -0.371,0.117 -0.704,0.273 -1.036,0.527 l -0.8,-0.918 11.015,-8.992 0.801,0.887 c -0.156,0.148 -0.312,0.343 -0.488,0.578 -0.215,0.254 -0.137,0.566 0.195,0.918 0.156,0.215 0.567,0.457 1.113,0.711 0.547,0.265 5.098,2.433 5.489,2.726 l 16.074,-14.328 c -0.195,-0.515 -1.856,-5.574 -2.07,-6.14 -0.196,-0.579 -0.469,-0.977 -0.625,-1.184 -0.332,-0.34 -0.625,-0.449 -0.899,-0.281 -0.215,0.144 -0.469,0.281 -0.586,0.371 l -0.82,-0.91 z m -55.664,66.086 17.324,-10.93 -8.184,-13.125 c -0.429,-0.633 -0.918,-0.918 -1.425,-0.82 -0.508,0.089 -1.094,0.304 -1.739,0.644 l -0.683,-1.023 14.453,-10.078 0.625,1.035 c -0.606,0.437 -1.035,0.879 -1.309,1.328 -0.332,0.418 -0.273,0.984 0.098,1.629 l 20.762,33.125 c 0.39,0.656 0.859,0.929 1.406,0.832 0.469,-0.078 1.074,-0.285 1.797,-0.637 l 0.644,1.055 -14.531,10.09 -0.664,-1.067 c 0.586,-0.476 1.035,-0.879 1.289,-1.336 0.371,-0.429 0.332,-0.976 -0.078,-1.601 l -6.875,-11.164 -17.422,10.929 6.973,11.192 c 0.41,0.625 0.84,0.879 1.347,0.781 0.528,-0.07 1.114,-0.273 1.817,-0.606 l 0.566,1.036 -15.195,8.816 -0.703,-1.055 c 0.605,-0.437 1.094,-0.886 1.406,-1.316 0.293,-0.441 0.234,-0.977 -0.137,-1.594 l -20.644,-33.301 c -0.41,-0.652 -0.84,-0.918 -1.387,-0.828 -0.508,0.098 -1.113,0.321 -1.777,0.664 l -0.684,-1.066 15.215,-8.691 0.684,1.027 c -0.606,0.457 -1.055,0.906 -1.348,1.336 -0.274,0.43 -0.215,0.969 0.117,1.594 l 8.262,13.125 z M 544.414,807.16 531.66,770.129 c -0.254,-0.703 -0.703,-1.074 -1.211,-1.125 -0.547,-0.008 -1.172,0.059 -1.855,0.254 l -0.41,-1.141 16.757,-5.187 0.391,1.172 c -0.644,0.293 -1.23,0.644 -1.641,0.996 -0.41,0.324 -0.507,0.871 -0.253,1.593 l 4.57,13.133 16.094,-5.574 c 0.273,-0.109 0.625,-0.383 0.859,-0.773 0.254,-0.45 0.195,-1.133 -0.117,-2.098 l 1.074,-0.383 4.473,12.969 -1.094,0.363 c -0.313,-0.898 -0.703,-1.426 -1.094,-1.555 -0.449,-0.136 -0.879,-0.136 -1.191,-0.019 l -16.016,5.578 3.067,8.914 23.769,-8.262 c 0.293,-0.097 0.586,-0.351 0.879,-0.781 0.195,-0.398 0.176,-1.082 -0.176,-2.058 l 1.113,-0.383 4.532,13.117 -1.035,0.371 c -0.332,-0.898 -0.723,-1.445 -1.172,-1.594 -0.45,-0.136 -0.899,-0.136 -1.192,-0.008 l -38.066,13.329 -0.352,-1.161 c 0.742,-0.363 1.348,-0.703 1.797,-1.035 0.43,-0.383 0.528,-0.898 0.254,-1.621 z m -39.805,2.168 c 1.758,-0.285 3.379,-0.898 4.746,-1.73 1.368,-0.868 2.559,-1.903 3.516,-3.164 0.996,-1.258 1.582,-2.715 1.992,-4.286 0.313,-1.582 0.313,-3.339 0,-5.214 -0.39,-1.887 -0.976,-3.496 -1.914,-4.836 -0.937,-1.356 -2.051,-2.461 -3.418,-3.289 -1.347,-0.801 -2.832,-1.379 -4.414,-1.633 -1.601,-0.313 -3.242,-0.313 -5.039,0.058 -1.66,0.293 -3.242,0.911 -4.609,1.731 -1.426,0.887 -2.656,1.953 -3.574,3.183 -0.957,1.25 -1.622,2.676 -1.954,4.297 -0.371,1.571 -0.371,3.309 -0.039,5.184 0.352,1.894 1.036,3.516 1.914,4.894 0.899,1.336 2.032,2.403 3.379,3.243 1.368,0.828 2.852,1.355 4.453,1.66 1.661,0.281 3.321,0.281 4.961,-0.098 z m 2.051,10.684 c -2.871,0.488 -5.82,0.625 -8.828,0.301 -3.125,-0.333 -5.937,-1.192 -8.594,-2.598 -2.734,-1.406 -5.039,-3.406 -7.05,-5.996 -2.051,-2.617 -3.399,-5.887 -4.102,-9.891 -0.723,-3.996 -0.703,-7.539 0.195,-10.664 0.977,-3.137 2.383,-5.832 4.375,-8.066 2.051,-2.278 4.336,-4.024 7.032,-5.403 2.792,-1.328 5.585,-2.293 8.457,-2.859 2.851,-0.539 5.8,-0.676 8.847,-0.41 3.047,0.254 5.879,1.074 8.555,2.461 2.695,1.355 5.039,3.34 7.09,5.886 1.972,2.598 3.34,5.879 4.062,9.903 0.703,3.926 0.664,7.519 -0.254,10.676 -0.898,3.164 -2.343,5.867 -4.316,8.144 -2.031,2.285 -4.395,4.141 -7.09,5.574 -2.754,1.399 -5.527,2.383 -8.379,2.942 z m -84.472,-35.91 -0.684,13.605 14.394,26.348 c 0.215,0.468 0.606,0.73 1.114,0.918 0.547,0.164 0.976,0.234 1.269,0.254 l -0.039,1.257 -18.125,-0.234 0.039,-1.211 c 0.332,0.012 0.703,-0.039 1.231,-0.105 0.508,-0.079 0.801,-0.383 0.801,-0.95 0.019,-0.32 -0.372,-1.406 -1.036,-2.656 -0.664,-1.269 -6.093,-11.043 -6.328,-11.59 -1.015,1.317 -7.969,10.391 -8.633,11.289 -0.566,0.899 -0.898,1.805 -0.898,2.176 -0.039,0.52 0.176,0.832 0.723,0.949 0.488,0.118 0.957,0.203 1.367,0.235 l -0.078,1.211 -19.551,-1.739 0.039,-1.203 c 0.41,0 0.879,-0.047 1.445,-0.136 0.567,-0.106 1.016,-0.352 1.231,-0.743 l 18.672,-25.136 0.683,-13.153 c 0.02,-0.734 -0.195,-1.25 -0.586,-1.476 -0.488,-0.215 -0.898,-0.371 -1.347,-0.457 l 0.078,-1.211 16.347,0.808 -0.058,1.223 c -0.43,0.047 -0.899,0.176 -1.348,0.352 -0.39,0.175 -0.625,0.664 -0.722,1.375 z m -46.758,38.203 -38.203,-7.696 c -0.372,-0.097 -0.743,0 -1.172,0.168 -0.41,0.196 -0.684,0.75 -0.938,1.727 l -1.094,-0.215 2.969,-14.676 1.153,0.184 c -0.196,0.937 -0.157,1.613 0.156,1.933 0.312,0.352 0.605,0.567 0.996,0.657 l 12.988,2.597 6.153,-30.82 c 0.136,-0.742 0.039,-1.281 -0.391,-1.543 -0.41,-0.324 -0.879,-0.547 -1.309,-0.683 l 0.196,-1.231 16.406,3.328 -0.235,1.184 c -0.468,-0.039 -1.054,0.027 -1.503,0.117 -0.508,0.117 -0.86,0.527 -0.957,1.277 l -6.153,30.832 12.949,2.598 c 0.372,0.066 0.801,0.027 1.211,-0.207 0.411,-0.184 0.703,-0.711 0.899,-1.629 l 1.094,0.184 -2.989,14.707 -1.054,-0.215 c 0.156,-0.965 0.097,-1.621 -0.176,-1.961 -0.332,-0.344 -0.625,-0.539 -0.996,-0.617 z m -110.293,-66.492 2.168,-14.016 1.133,0.137 c 0.156,0.461 0.253,0.879 0.488,1.308 0.156,0.391 0.449,0.703 0.82,0.891 0.156,0.078 0.918,0.215 2.188,0.41 1.347,0.184 2.929,0.469 4.882,0.887 1.914,0.371 4.004,0.929 6.172,1.601 2.227,0.684 4.356,1.485 6.426,2.414 3.203,1.465 5.84,3.047 7.832,4.785 2.051,1.739 3.574,3.536 4.453,5.489 0.996,1.992 1.446,3.945 1.387,5.898 0,2 -0.391,3.856 -1.25,5.633 -1.191,2.773 -2.891,4.582 -4.922,5.48 -2.07,0.899 -4.297,1.25 -6.719,1.133 -2.402,-0.129 -4.961,-0.586 -7.48,-1.34 -2.5,-0.761 -4.902,-1.453 -7.11,-2.136 -2.187,-0.645 -4.101,-1.067 -5.605,-1.231 -1.523,-0.148 -2.637,0.371 -3.145,1.434 -0.429,1.047 -0.429,2.062 0.118,2.941 0.605,0.907 1.406,1.766 2.343,2.52 0.918,0.75 1.895,1.433 2.93,1.961 1.055,0.508 1.875,0.89 2.422,1.105 1.465,0.684 2.93,1.172 4.434,1.563 1.484,0.371 2.89,0.605 4.121,0.711 1.25,0.136 2.324,0.187 3.144,0.109 0.899,-0.07 1.387,-0.207 1.563,-0.43 0.039,-0.207 0.097,-0.39 0.156,-0.586 0.078,-0.234 0.078,-0.382 0.156,-0.519 l 1.367,-0.027 -0.273,14.031 -1.113,-0.067 c -0.137,-0.304 -0.254,-0.656 -0.43,-1.047 -0.156,-0.437 -0.449,-0.73 -0.918,-0.937 -0.508,-0.195 -1.27,-0.418 -2.441,-0.652 -1.114,-0.227 -2.52,-0.539 -4.161,-0.911 -1.582,-0.351 -3.418,-0.859 -5.332,-1.453 -1.933,-0.578 -3.964,-1.367 -5.878,-2.285 -3.516,-1.562 -6.172,-3.34 -8.184,-5.332 -2.012,-2.023 -3.379,-4.035 -4.238,-6.055 -0.84,-2.05 -1.211,-4.054 -1.133,-6.007 0.058,-1.973 0.469,-3.653 1.094,-5.059 1.211,-2.625 2.793,-4.324 4.824,-5.184 2.012,-0.812 4.219,-1.144 6.66,-0.968 2.441,0.156 4.883,0.636 7.441,1.437 2.52,0.77 4.864,1.492 7.11,2.168 2.129,0.664 4.023,1.055 5.605,1.153 1.602,0.117 2.656,-0.489 3.301,-1.731 0.371,-0.937 0.41,-1.805 0.078,-2.605 -0.332,-0.782 -0.898,-1.543 -1.621,-2.2 -0.664,-0.683 -1.426,-1.25 -2.344,-1.707 -0.859,-0.461 -1.523,-0.793 -2.031,-1.035 -1.68,-0.793 -3.555,-1.496 -5.605,-2.082 -2.11,-0.625 -4.063,-1.074 -5.938,-1.387 -1.914,-0.273 -3.477,-0.39 -4.766,-0.32 -1.386,0.047 -2.207,0.371 -2.461,1.016 -0.078,0.242 -0.156,0.449 -0.234,0.633 -0.058,0.148 -0.098,0.265 -0.137,0.41 l -1.347,0.051 z m -45.899,-17.727 -6.133,9.152 10.333,7.051 c 2.343,1.57 4.16,2.188 5.585,1.856 1.348,-0.364 2.481,-1.125 3.379,-2.442 1.016,-1.555 1.289,-3.008 0.879,-4.426 -0.449,-1.386 -1.445,-2.656 -3.105,-3.769 l -10.938,-7.422 z m -19.121,7.187 21.875,-32.351 c 0.43,-0.645 0.488,-1.145 0.235,-1.582 -0.235,-0.43 -0.489,-0.774 -0.743,-1.008 l 0.664,-1.023 12.911,9.414 -0.664,0.976 c -0.606,-0.312 -1.172,-0.519 -1.641,-0.578 -0.508,-0.117 -0.918,0.156 -1.387,0.774 l -7.851,11.543 7.48,5.039 c 0.332,-0.254 10.293,-5.704 11.641,-6.457 1.289,-0.79 2.031,-1.297 2.226,-1.622 0.332,-0.418 0.332,-0.839 -0.058,-1.289 -0.293,-0.418 -0.645,-0.769 -1.075,-1.023 l 0.762,-0.996 16.465,10.293 -0.762,1.015 c -0.566,-0.382 -1.211,-0.566 -1.855,-0.566 -0.723,0.02 -1.367,0.164 -1.973,0.449 l -15.586,7.129 c 1.817,2.695 2.891,5.508 3.321,8.348 0.429,2.863 -0.43,5.82 -2.461,8.847 -2.598,3.938 -5.762,6.086 -9.356,6.536 -3.613,0.437 -7.383,-0.676 -11.23,-3.282 l -24.258,-17.207 0.664,-1.015 c 0.469,0.234 0.918,0.398 1.348,0.468 0.468,0.079 0.859,-0.207 1.308,-0.832 z m 3.516,-39.304 -19.297,-18 -6.816,7.375 12.734,11.902 c 0.312,0.254 0.644,0.391 1.172,0.402 0.488,0.028 1.015,-0.285 1.621,-0.976 l 0.859,0.742 -9.062,9.707 -0.801,-0.754 c 0.664,-0.711 0.937,-1.289 0.879,-1.777 -0.078,-0.488 -0.215,-0.84 -0.547,-1.082 l -12.715,-11.934 -5.644,6.102 19.726,18.508 c 0.332,0.261 0.723,0.429 1.192,0.429 0.429,0.047 1.113,-0.332 1.757,-1.093 l 0.801,0.769 -9.316,10.051 -0.821,-0.813 c 0.625,-0.664 0.977,-1.25 0.84,-1.699 -0.097,-0.449 -0.273,-0.808 -0.586,-1.055 l -30.566,-28.964 0.82,-0.907 c 0.625,0.438 1.114,0.75 1.621,0.965 0.567,0.196 1.094,0.02 1.602,-0.508 l 26.426,-28.484 c 0.468,-0.578 0.605,-1.066 0.332,-1.562 -0.235,-0.54 -0.508,-1.047 -0.977,-1.563 l 0.742,-0.871 29.903,28.684 c 0.605,0.507 0.996,0.828 1.347,0.945 0.332,0.129 0.977,-0.028 1.817,-0.516 l 0.703,0.633 -8.926,9.582 -0.801,-0.773 c 0.879,-1.493 0.879,-2.625 -0.019,-3.465 z m -92.285,-48.731 0.957,-0.773 c 0.175,0.195 0.312,0.39 0.508,0.558 0.136,0.125 0.39,0.321 0.878,0.399 0.332,0.039 1.446,-0.184 3.477,-0.887 1.973,-0.722 30.957,-11.437 32.812,-12.207 1.993,-0.734 3.204,-1.262 3.262,-1.301 0.449,-0.359 0.645,-0.8 0.606,-1.297 -0.039,-0.519 -0.196,-0.949 -0.528,-1.261 l 0.996,-0.75 12.032,15.449 -0.938,0.711 c -0.215,-0.371 -0.605,-0.613 -1.133,-0.789 -0.507,-0.137 -0.957,-0.059 -1.406,0.273 -0.117,0.117 -0.937,1.063 -1.933,2.684 -1.036,1.621 -19.629,32.07 -20.098,32.656 -0.156,0.215 -0.488,0.774 -0.391,1.211 0,0.41 0.196,0.781 0.469,1.191 l -0.977,0.782 -9.882,-11.699 0.996,-0.77 c 0.175,0.273 0.429,0.605 0.859,0.977 0.352,0.39 0.82,0.39 1.231,0.085 0.214,-0.136 0.82,-1.113 1.875,-2.89 1.093,-1.777 11.445,-18.875 12.675,-20.867 l -0.097,-0.129 c -0.45,0.195 -22.618,8.215 -23.789,8.683 -1.192,0.45 -1.817,0.723 -1.934,0.828 -0.449,0.344 -0.488,0.743 -0.176,1.25 0.313,0.528 0.586,0.918 0.801,1.211 l -0.957,0.743 -10.195,-14.071 z m 12.207,-61.328 -35.7425,15.86 c -0.6836,0.312 -0.9961,0.71 -0.9961,1.257 0,0.528 0.1563,1.184 0.3711,1.907 l -1.0547,0.476 -7.2851,-14.715 1.1328,-0.488 c 0.332,0.652 0.7422,1.152 1.0547,1.531 0.4492,0.344 0.9961,0.371 1.6601,0.098 l 18.5747,-8.281 c -2.9302,-0.86 -5.7427,-1.739 -8.7114,-2.586 -2.9297,-0.918 -5.5859,-1.653 -7.9297,-2.344 -2.4414,-0.723 -4.375,-1.301 -5.918,-1.68 -1.6406,-0.449 -2.1484,-0.644 -2.5976,-0.566 -0.8399,0.078 -1.2305,0.828 -1.25,1.328 0,0.496 0.0195,0.957 0.1367,1.375 l -1.0937,0.52 -8.2227,-20.567 1.1328,-0.5 c 0.3516,0.617 0.7031,1.094 1.0547,1.465 0.4492,0.383 0.9375,0.402 1.6406,0.098 l 35.6833,-15.899 c 0.684,-0.332 1.035,-0.711 1.035,-1.199 0,-0.547 -0.136,-1.066 -0.312,-1.66 l 1.152,-0.527 5.743,14.863 -1.133,0.508 c -0.371,-0.598 -0.703,-1.055 -1.055,-1.399 -0.371,-0.293 -0.996,-0.332 -1.641,-0.058 l -24.4332,10.859 -0.1172,0.285 c 4.1016,0.984 8.1641,2.109 11.9336,3.328 3.8478,1.164 7.4028,2.239 10.5078,3.223 3.027,0.918 5.645,1.691 7.754,2.246 2.051,0.566 3.34,0.695 3.867,0.48 0.567,-0.246 0.762,-0.703 0.645,-1.328 -0.157,-0.656 -0.313,-1.191 -0.547,-1.66 l 1.172,-0.48 7.675,15.371 -1.171,0.469 c -0.332,-0.665 -0.684,-1.153 -1.133,-1.532 -0.391,-0.371 -0.918,-0.402 -1.582,-0.078 z M 51.5625,505.168 72.793,499.992 c 2.6367,-0.683 5.2343,-0.898 7.7734,-0.754 2.4805,0.098 4.8242,0.821 6.9531,2.032 2.168,1.183 4.0625,3.019 5.7032,5.5 1.6406,2.468 2.8906,5.683 3.8671,9.668 0.9375,3.992 1.25,7.382 0.9571,10.359 -0.2735,2.941 -1.1524,5.461 -2.4024,7.512 -1.4257,2.05 -3.1836,3.738 -5.2929,5.027 -2.2266,1.289 -4.5703,2.277 -7.2852,2.922 L 61.8555,547.5 c -0.6836,0.195 -1.0938,0.547 -1.1914,1.152 -0.0391,0.528 0,1.172 0.0781,1.907 l -1.1719,0.3 -4.5898,-16.16 1.1328,-0.285 c 0.1367,0.285 0.3515,0.559 0.6445,0.871 0.3125,0.313 0.8008,0.391 1.543,0.223 l 24.1601,-5.887 c 2.4414,-0.644 4.043,-1.894 4.7461,-3.84 0.6836,-1.933 0.6836,-4.238 0,-6.953 -0.6445,-2.683 -1.6601,-4.785 -3.1445,-6.152 -1.5234,-1.426 -3.5156,-1.797 -6.0352,-1.18 l -24.1601,5.938 c -0.7422,0.164 -1.1914,0.468 -1.3086,0.898 -0.1367,0.371 -0.1758,0.75 -0.1367,1.074 l -1.25,0.282 -3.1836,-16.387 1.1719,-0.301 c 0.2539,0.723 0.5078,1.289 0.8398,1.727 0.293,0.48 0.8398,0.617 1.5625,0.441 z M 433.457,15.0195 c 230.723,0 418.398,188.0195 418.398,419.1525 0,231.191 -187.675,419.219 -418.398,419.219 C 202.754,853.391 15,665.363 15,434.172 15,203.039 202.754,15.0195 433.457,15.0195 Z m 0,853.4185 c 238.984,0 433.398,-194.833 433.398,-434.266 C 866.855,194.766 672.441,0 433.457,0 194.492,0 0,194.766 0,434.172 0,673.605 194.492,868.438 433.457,868.438 Z M 754.316,434.121 c 0,-177.363 -143.574,-321.18 -320.644,-321.18 -177.07,0 -320.625,143.817 -320.625,321.18 0,177.395 143.555,321.203 320.625,321.203 177.07,0 320.644,-143.808 320.644,-321.203"
         style="fill:#00452a;fill-opacity:1;fill-rule:nonzero;stroke:none"
         id="path3367"
         inkscape:connector-curvature="0" /><path
         d="m 713.586,18.3789 -1.469,16.6016 c -0.137,1.4843 0,3.75 -0.066,5.664 l -0.203,0 c -0.664,-1.9726 -1.465,-4.375 -2.27,-6.2695 l -6.746,-15.6836 -2.148,0 -6.817,16.1719 c -0.664,1.543 -1.465,3.8672 -2.004,5.7812 l -0.191,0 c -0.07,-1.9726 0.058,-3.6914 -0.141,-5.664 l -1.336,-16.6016 -2.605,0 2.273,24.4727 3.203,0 6.883,-15.7422 c 0.676,-1.5235 1.203,-3.4375 1.946,-5.8399 l 0.125,0 c 0.609,2.3438 1.21,4.375 1.875,5.8985 l 6.75,15.6836 3.281,0 2.336,-24.4727 -2.676,0 z m -26.398,24.4727 0,-2.0899 -9.29,0 0,-22.3828 -2.539,0 0,22.3828 -9.296,0 0,2.0899 21.125,0"
         style="fill:#00452a;fill-opacity:1;fill-rule:nonzero;stroke:none"
         id="path3369"
         inkscape:connector-curvature="0" /></g></g></svg>